#!OML:ASF Y:\EmotionMaleHayes\Project 1\Capture day 1\Session 1\Male1.ASF
:FULLY-SPECIFIED
:DEGREES
457
root -13.2258 16.2205 18.8185 -27.0048 79.1877 -25.7576
lowerback 7.66184 3.55202 2.61121
upperback 2.7436 4.96086 -1.01776
thorax -1.13363 2.52292 -2.91824
lowerneck -20.6455 3.54574 6.89364
upperneck 28.7211 3.46417 -1.03352
head 13.2623 2.29807 -0.934249
rclavicle 3.8763e-014 7.15625e-015
rhumerus -24.4431 10.3208 -88.9364
rradius 46.6807
rwrist -2.75175
rhand -12.8975 -28.39
rfingers 7.12502
rthumb 13.192 -57.9526
lclavicle 3.8763e-014 7.15625e-015
lhumerus -37.2792 12.7846 71.506
lradius 18.1302
lwrist -27.4321
lhand -13.5167 -23.5442
lfingers 7.12502
lthumb 12.5951 6.05611
rfemur 24.2348 7.6326 24.8134
rtibia 18.3763
rfoot -19.0903 -0.300934
rtoes -20.5059
lfemur -23.0125 8.63961 -13.4901
ltibia 20.4077
lfoot -2.99391 10.5757
ltoes 9.92261
458
root -13.0423 16.2469 18.803 -26.5937 79.4637 -25.1878
lowerback 7.97503 3.55356 2.45192
upperback 2.60016 4.95386 -1.19068
thorax -1.45331 2.5113 -3.03767
lowerneck -20.5686 3.31545 6.66582
upperneck 28.7589 3.10934 -0.677622
head 13.234 2.17199 -0.819551
rclavicle -3.39922e-014 7.95139e-015
rhumerus -25.8935 9.84905 -89.3631
rradius 47.0859
rwrist -3.183
rhand -12.7429 -29.1575
rfingers 7.12502
rthumb 13.341 -58.7105
lclavicle -3.39922e-014 7.95139e-015
lhumerus -36.7801 12.4083 71.986
lradius 18.2735
lwrist -27.0351
lhand -13.7725 -23.6481
lfingers 7.12502
lthumb 12.3484 5.96723
rfemur 23.7671 7.71744 24.655
rtibia 20.5455
rfoot -17.7015 -0.436402
rtoes -17.6851
lfemur -22.5717 8.5034 -13.9197
ltibia 21.1699
lfoot -2.92007 10.3693
ltoes 12.1532
459
root -12.8595 16.2755 18.7852 -26.391 79.8934 -24.8523
lowerback 7.86064 3.51881 2.2007
upperback 2.66963 4.887 -1.26394
thorax -1.33779 2.48153 -2.95657
lowerneck -20.4325 3.15257 6.36115
upperneck 28.6152 2.91797 -0.455075
head 13.1267 2.08367 -0.717769
rclavicle 1.5207e-014 2.38542e-015
rhumerus -26.9271 9.41167 -89.5555
rradius 47.0255
rwrist -3.21122
rhand -12.4178 -30.3259
rfingers 7.12502
rthumb 13.6544 -59.858
lclavicle 1.5207e-014 2.38542e-015
lhumerus -36.1695 12.13 72.7274
lradius 18.6058
lwrist -26.6032
lhand -14.1147 -23.6326
lfingers 7.12502
lthumb 12.0185 6.00232
rfemur 23.2297 7.25807 24.0961
rtibia 22.6652
rfoot -15.8876 -0.254054
rtoes -14.9621
lfemur -22.088 8.13529 -14.436
ltibia 21.7591
lfoot -3.79045 9.36693
ltoes 12.3154
460
root -12.675 16.3045 18.7658 -25.269 80.2271 -23.5462
lowerback 8.13041 3.51791 1.91643
upperback 2.51151 4.86287 -1.43041
thorax -1.66089 2.46139 -2.99582
lowerneck -20.3355 3.02269 6.25539
upperneck 28.7843 2.77313 -0.403908
head 13.1673 2.02425 -0.704715
rclavicle 8.64713e-015 -1.27222e-014
rhumerus -28.2055 8.87923 -89.9178
rradius 46.3614
rwrist -2.41562
rhand -12.5884 -29.7048
rfingers 7.12502
rthumb 13.49 -59.2479
lclavicle 8.64713e-015 -1.27222e-014
lhumerus -35.7796 11.5918 73.3702
lradius 18.8089
lwrist -25.8786
lhand -14.5409 -23.6821
lfingers 7.12502
lthumb 11.6075 5.97646
rfemur 22.6471 6.76216 23.2692
rtibia 24.6089
rfoot -13.6372 0.0749902
rtoes -11.8665
lfemur -21.3481 7.78342 -15.0383
ltibia 22.0373
lfoot -4.38239 8.8164
ltoes 12.5391
461
root -12.4919 16.3325 18.7457 -23.2949 80.4249 -21.3421
lowerback 7.71748 3.44943 1.52981
upperback 2.90471 4.74768 -1.581
thorax -1.0529 2.42216 -2.87835
lowerneck -20.5895 3.08806 6.28795
upperneck 28.6171 2.88648 -0.624652
head 13.1588 2.03547 -0.775636
rclavicle 4.64162e-014 -3.18055e-014
rhumerus -28.5577 8.76386 -90.2148
rradius 45.9092
rwrist -2.50908
rhand -12.4752 -29.8707
rfingers 7.12502
rthumb 13.5991 -59.4065
lclavicle 4.64162e-014 -3.18055e-014
lhumerus -34.6285 11.5239 74.1002
lradius 18.9169
lwrist -25.001
lhand -14.7646 -23.9032
lfingers 7.12502
lthumb 11.3918 5.76733
rfemur 21.9 6.4086 22.3955
rtibia 26.69
rfoot -11.1693 0.111322
rtoes -7.27237
lfemur -20.366 7.55217 -15.667
ltibia 21.951
lfoot -4.63328 8.77456
ltoes 12.7465
462
root -12.3127 16.3623 18.7254 -20.6916 80.7151 -18.5055
lowerback 8.40287 3.51124 0.918349
upperback 2.5544 4.77465 -1.72089
thorax -1.82943 2.41807 -2.75174
lowerneck -20.4691 2.94405 6.0432
upperneck 28.9134 2.73579 -0.430979
head 13.2422 1.98309 -0.683632
rclavicle -7.15625e-015 7.95139e-015
rhumerus -30.2008 8.40662 -90.4975
rradius 45.6713
rwrist -2.70908
rhand -12.499 -30.2329
rfingers 7.12502
rthumb 13.5761 -59.7703
lclavicle -7.15625e-015 7.95139e-015
lhumerus -34.6782 10.3228 75.0405
lradius 19.5563
lwrist -23.7271
lhand -14.8676 -24.0051
lfingers 7.12502
lthumb 11.2924 5.67088
rfemur 21.0718 6.02899 21.4289
rtibia 28.9448
rfoot -8.69323 -0.304352
rtoes -2.8888
lfemur -19.337 7.1448 -16.4616
ltibia 21.7033
lfoot -4.96656 8.8298
ltoes 13.1227
463
root -12.14 16.3966 18.7069 -18.2502 80.8857 -15.7701
lowerback 8.1445 3.47675 0.355679
upperback 2.91386 4.69823 -1.79337
thorax -1.35859 2.39178 -2.47205
lowerneck -20.7985 3.07387 6.06052
upperneck 29.0263 2.93352 -0.570745
head 13.3685 2.04923 -0.702156
rclavicle 8.54774e-015 -1.19271e-014
rhumerus -30.5809 8.52766 -90.6421
rradius 45.049
rwrist -2.80476
rhand -12.3299 -30.3077
rfingers 7.12502
rthumb 13.7391 -59.8341
lclavicle 8.54774e-015 -1.19271e-014
lhumerus -33.7109 9.7492 76.0718
lradius 20.0777
lwrist -22.5003
lhand -14.9622 -23.9041
lfingers 7.12502
lthumb 11.2012 5.77692
rfemur 20.1735 5.87765 20.6967
rtibia 31.4341
rfoot -6.58481 -0.577725
rtoes 1.26392
lfemur -18.2312 6.81162 -17.1302
ltibia 21.4791
lfoot -5.56851 8.66017
ltoes 14.0108
464
root -11.962 16.4302 18.6846 -16.5017 81.6141 -13.7252
lowerback 8.61909 3.28464 -0.044866
upperback 2.78945 4.40205 -1.96965
thorax -1.7777 2.2397 -2.44342
lowerneck -20.8418 3.04602 5.997
upperneck 29.3232 2.92848 -0.562652
head 13.5006 2.05083 -0.685918
rclavicle 2.14687e-014 7.95139e-016
rhumerus -31.5885 8.21543 -90.894
rradius 44.2924
rwrist -2.39522
rhand -11.8384 -30.1956
rfingers 7.12502
rthumb 14.2128 -59.6894
lclavicle 2.14687e-014 7.95139e-016
lhumerus -33.464 8.34423 77.0507
lradius 20.7912
lwrist -20.9832
lhand -15.0122 -23.7298
lfingers 7.12502
lthumb 11.1529 5.95381
rfemur 19.4223 5.46189 20.0455
rtibia 33.702
rfoot -4.54973 -1.53277
rtoes 6.60028
lfemur -17.1775 6.16681 -17.9536
ltibia 21.2872
lfoot -5.99565 8.2335
ltoes 14.0793
465
root -11.7935 16.4627 18.6661 -11.1059 81.3212 -8.12103
lowerback 8.24037 3.43566 -1.03794
upperback 3.08732 4.54412 -2.06348
thorax -1.32394 2.31589 -1.96281
lowerneck -20.8066 3.07578 5.86338
upperneck 29.0292 3.04114 -0.678658
head 13.3717 2.05796 -0.692549
rclavicle 2.04748e-014 -2.78299e-014
rhumerus -31.7802 8.1863 -90.8775
rradius 43.4445
rwrist -1.81726
rhand -10.6322 -30.9009
rfingers 7.12502
rthumb 15.3748 -60.3092
lclavicle 2.04748e-014 -2.78299e-014
lhumerus -32.7158 7.28937 78.2391
lradius 21.7596
lwrist -19.4997
lhand -14.9978 -23.7667
lfingers 7.12502
lthumb 11.1669 5.91619
rfemur 18.1628 5.86395 19.0681
rtibia 36.1916
rfoot -1.93754 -2.0138
rtoes 13.337
lfemur -15.9666 6.37567 -18.8772
ltibia 20.7774
lfoot -6.35438 8.16909
ltoes 14.1925
466
root -11.624 16.4936 18.648 -5.06976 81.6368 -1.87439
lowerback 8.60291 3.41507 -2.03116
upperback 2.84693 4.41451 -2.33432
thorax -1.82706 2.24846 -1.71468
lowerneck -20.4783 3.00963 5.74553
upperneck 29.1551 2.99076 -0.553646
head 13.3487 2.05042 -0.634946
rclavicle 0 1.03368e-014
rhumerus -32.9625 8.00158 -91.1196
rradius 42.741
rwrist -1.39089
rhand -8.91897 -32.2288
rfingers 7.12502
rthumb 17.0244 -61.5028
lclavicle 0 1.03368e-014
lhumerus -32.8927 5.56887 79.2306
lradius 22.9438
lwrist -17.5702
lhand -14.8423 -23.9573
lfingers 7.12502
lthumb 11.3169 5.71737
rfemur 17.138 5.69326 17.8363
rtibia 38.3576
rfoot 0.444962 -3.02891
rtoes 15.757
lfemur -14.893 6.03086 -20.1731
ltibia 20.38
lfoot -6.76442 7.94974
ltoes 15.0855
467
root -11.4664 16.5204 18.6335 -0.488255 81.8691 2.88907
lowerback 8.84446 3.33643 -2.91681
upperback 2.77695 4.22274 -2.42124
thorax -2.0904 2.15405 -1.31337
lowerneck -20.3776 3.05581 5.65856
upperneck 29.2077 3.12807 -0.631382
head 13.3535 2.09237 -0.627501
rclavicle -6.95746e-015 7.15625e-015
rhumerus -33.8138 8.11289 -91.2409
rradius 41.8751
rwrist -1.30294
rhand -7.95242 -32.6685
rfingers 7.12502
rthumb 17.9546 -61.8598
lclavicle -6.95746e-015 7.15625e-015
lhumerus -32.7898 4.25532 80.2304
lradius 23.932
lwrist -15.8513
lhand -14.7773 -24.1449
lfingers 7.12502
lthumb 11.3795 5.52635
rfemur 16.0362 5.49334 16.9671
rtibia 40.6146
rfoot 2.23388 -3.50166
rtoes 16.6258
lfemur -13.9013 5.75796 -21.1043
ltibia 20.0161
lfoot -7.17401 7.72886
ltoes 15.667
468
root -11.3148 16.539 18.6224 4.0839 81.8677 7.45687
lowerback 8.73024 3.2751 -3.82554
upperback 2.82413 4.07422 -2.50509
thorax -2.03277 2.08121 -0.871617
lowerneck -20.5195 3.17893 5.64682
upperneck 29.1546 3.33996 -0.779647
head 13.3712 2.15728 -0.645475
rclavicle -1.78906e-014 1.19271e-014
rhumerus -34.1624 8.17849 -91.3289
rradius 40.8522
rwrist -1.0291
rhand -7.42376 -32.8945
rfingers 7.12502
rthumb 18.4632 -62.0383
lclavicle -1.78906e-014 1.19271e-014
lhumerus -32.3254 3.11708 81.1289
lradius 24.8319
lwrist -14.4869
lhand -14.9096 -24.1742
lfingers 7.12502
lthumb 11.2519 5.50402
rfemur 14.5537 5.41387 16.1275
rtibia 42.9704
rfoot 3.47997 -4.03472
rtoes 14.6854
lfemur -13.1661 5.78579 -21.9522
ltibia 19.6982
lfoot -7.56344 7.51262
ltoes 14.9194
469
root -11.1608 16.5669 18.6088 10.416 81.8736 14.0199
lowerback 8.57986 3.14924 -4.95064
upperback 3.12385 3.8501 -2.65912
thorax -1.69368 1.968 -0.363497
lowerneck -20.6594 3.28602 5.50714
upperneck 28.8477 3.52709 -0.839492
head 13.2765 2.20157 -0.613942
rclavicle -5.96354e-016 -2.38542e-015
rhumerus -34.1014 8.27289 -91.3635
rradius 39.7834
rwrist -0.575514
rhand -6.8051 -33.1335
rfingers 7.12502
rthumb 19.0583 -62.2198
lclavicle -5.96354e-016 -2.38542e-015
lhumerus -31.588 1.90441 82.0061
lradius 25.8428
lwrist -13.0662
lhand -14.9323 -24.0095
lfingers 7.12502
lthumb 11.2301 5.66987
rfemur 13.3314 5.22842 14.9398
rtibia 45.1182
rfoot 4.11721 -4.69054
rtoes 11.5004
lfemur -12.0917 5.81555 -23.139
ltibia 19.2204
lfoot -7.79519 7.21717
ltoes 13.5698
